<svg xmlns="http://www.w3.org/2000/svg" viewBox="0 0 295.2 72.17"><defs><style>.a{fill:#212322;}.b{fill:#ee2a28;}</style></defs><path class="a" d="M127.8,56.25H114.24V30.64c0-3.46-.39-5.95-2.26-5.95s-2.26,2.49-2.26,5.95V56.25H96.17V30.64c0-3.46-.39-5.95-2.26-5.95s-2.26,2.49-2.26,5.95V56.25H78.09V17.14H91.66V21.2a9.69,9.69,0,0,1,8.63-4.81c3.7,0,6.91,1.34,8.93,5.18a9.42,9.42,0,0,1,8.8-5.18c5.26,0,9.79,3.36,9.79,11.83ZM59.86,36.72c-1.81,1.5-4.53,3.07-4.53,7.83,0,3.2.82,4.51,2.27,4.51s2.26-1.31,2.26-4.51ZM57.94,16.39c9,0,15.48,3.12,15.48,12.94V56.25H59.86V52.86c-1.45,2.31-4.07,4.1-8.3,4.1-2.91,0-9.71-1-9.71-11.16,0-13.91,18-9.14,18-17.6,0-3.46-.82-4.87-2.27-4.87s-2.26,1.41-2.26,4.87v2.15H42.45v-1c0-9.82,6.49-12.94,15.49-12.94m92.7,24.14h12.88C163.34,51.93,156.77,57,147.7,57s-15.82-5.17-15.82-16.9V33.29c0-11.73,6.63-16.9,15.82-16.9s15.82,5.17,15.82,16.9v4.1H145.45v6.69c0,3.45.44,5.94,2.59,5.94s2.6-2.49,2.6-5.94ZM150,29.27c0-3.45-.39-5.94-2.26-5.94s-2.26,2.49-2.26,5.94v2.07H150ZM38,25.53v-2C38,10,29.92,6.34,21,6.34S4.14,11.15,4.14,24.69V38.6C4.14,47.71,8,57,18.33,57c4.74,0,7.78-2.29,9.09-4.46l1.07,3.75h9.44V30.35H21.53v8.36h3.69v1.75c0,4.25-.59,8.14-3.27,8.14s-3.26-3.89-3.26-8.14V22.64c0-4.14.27-7.94,2.35-7.94s2.35,3.8,2.35,7.94v2.89Z"/><path class="b" d="M222,55.43A19.92,19.92,0,0,1,214.22,57C207.79,57,204,53.34,204,46.38V22.32h-2.73V17.14H204v-5.3h13.55v5.3H222v5.18h-4.45V45.77c0,2.53.45,4.75,2.64,4.75A3.43,3.43,0,0,0,222,50v5.44M185.27,22.32h13.45v-2.1c0-9.61-6.42-13.88-15.94-13.88-9.1,0-15.94,5.09-15.94,14,0,16.7,18.9,13,18.9,24.33,0,3-1.17,4-2.59,4s-2.58-1-2.58-4V40.53H167v2C167,52.56,173.53,57,183.35,57c9.38,0,16.38-5.22,16.38-14.56,0-18.61-19.44-13.45-19.44-23.75,0-3,1.21-4,2.49-4s2.49,1,2.49,4Zm56.66,7c0-3.45-.39-5.94-2.26-5.94s-2.26,2.49-2.26,5.94V44.08c0,3.45.39,5.94,2.26,5.94s2.26-2.49,2.26-5.94Zm-2.26-12.88c9.19,0,15.82,5.17,15.82,16.9v6.77c0,11.73-6.63,16.9-15.82,16.9s-15.82-5.17-15.82-16.9V33.29c0-11.73,6.62-16.9,15.82-16.9m38,14.25c0-3.46-.39-5.95-2.26-5.95s-2.26,2.49-2.26,5.95V42.72c0,3.45.39,5.94,2.26,5.94s2.26-2.49,2.26-5.94Zm3.44-14.25c6.41,0,10.12,5.17,10.12,16.9v6.77c0,11.73-3.71,16.9-10.12,16.9a9.66,9.66,0,0,1-8-4.17V66H259.63V17.14h13.56v3.42a9.66,9.66,0,0,1,8-4.17m8.28,2.17a1.42,1.42,0,0,0,.53.53,1.35,1.35,0,0,0,.74.2,1.39,1.39,0,0,0,.72-.19,1.42,1.42,0,0,0,.53-.53,1.4,1.4,0,0,0,.2-.73,1.42,1.42,0,0,0-.74-1.26,1.38,1.38,0,0,0-.71-.19,1.53,1.53,0,0,0-.73.19,1.37,1.37,0,0,0-.53.54,1.39,1.39,0,0,0-.2.72,1.49,1.49,0,0,0,.19.72m.19-1.34a1.23,1.23,0,0,1,1.7-.46,1.27,1.27,0,0,1,.46.46,1.23,1.23,0,0,1,0,1.25,1.32,1.32,0,0,1-.46.45,1.14,1.14,0,0,1-.62.17,1.19,1.19,0,0,1-.63-.17,1.24,1.24,0,0,1-.46-.45,1.26,1.26,0,0,1-.16-.63,1.14,1.14,0,0,1,.17-.62m1.51-.1a.69.69,0,0,0-.47-.13h-.44v1.7h.25V18h.21l.41.68h.28l-.44-.74a.57.57,0,0,0,.26-.19.49.49,0,0,0-.06-.64m-.66.11h.17a.55.55,0,0,1,.29.06.23.23,0,0,1,.09.2c0,.2-.13.29-.38.29h-.17Z"/></svg>